# xmcd
#
# Track frame offsets:
#	150
#	21986
#	36158
#	48120
#	64890
#	78947
#	97690
#	115054
#	131338
#	152488
#	169615
#	180170
#	194840
#	213164
#
# Disc length: 3036 seconds
#
# Revision: 0
# Processed by: cddbd v1.5.2PL0 Copyright (c) Steve Scherf et al.
# Submitted via: dBpowerAMP V4.0
#
DISCID=a70bda0e
DTITLE=Brock Zeman and the Dirty Hands - Welcome Home Ivy Jane
DYEAR=2007
DGENRE=country
TTITLE0=Better Half
TTITLE1=In Days Ahead
TTITLE2=Since You've been Gone
TTITLE3=Boxcars
TTITLE4=Storms a-Comin'
TTITLE5=10 Dollars and A dime
TTITLE6=The Greasy Skillet Boys
TTITLE7=Porch Light
TTITLE8=A Different Kind Of Ground
TTITLE9=Saturday Night
TTITLE10=Whistle While I Clean My Gun
TTITLE11=Down In the Basement
TTITLE12=Cindy
TTITLE13=Chanelle
EXTD=
EXTT0=
EXTT1=
EXTT2=
EXTT3=
EXTT4=
EXTT5=
EXTT6=
EXTT7=
EXTT8=
EXTT9=
EXTT10=
EXTT11=
EXTT12=
EXTT13=
PLAYORDER=
